<?xml version="1.0" encoding="UTF-8" standalone="no"?> <svg xmlns="http://www.w3.org/2000/svg" xmlns:xlink="http://www.w3.org/1999/xlink" viewBox="0 0 64 64"><defs><style>.cls-1{fill:url(#linear-gradient);}</style><linearGradient id="linear-gradient" x1="5.37" y1="32" x2="58.63" y2="32" gradientUnits="userSpaceOnUse"><stop offset="0" stop-color="#17a6d7"/><stop offset="1" stop-color="#9d31fe"/></linearGradient></defs><g id="Layer_30" data-name="Layer 30"><path class="cls-1" d="M56.66,12.14H45.59v-5A5.18,5.18,0,0,0,40.42,2H23.58a5.18,5.18,0,0,0-5.17,5.18v5H7.34a2,2,0,0,0,0,4h3.59V56.82A5.18,5.18,0,0,0,16.11,62H47.89a5.18,5.18,0,0,0,5.18-5.18V16.14h3.59A2,2,0,0,0,56.66,12.14Zm-34.25-5A1.18,1.18,0,0,1,23.58,6H40.42a1.18,1.18,0,0,1,1.17,1.18v5H22.41ZM49.07,56.82A1.18,1.18,0,0,1,47.89,58H16.11a1.18,1.18,0,0,1-1.18-1.18V16.14H49.07Z"/></g></svg>