<?xml version="1.0" encoding="UTF-8" standalone="no"?> <svg xmlns="http://www.w3.org/2000/svg" xmlns:xlink="http://www.w3.org/1999/xlink" viewBox="0 0 64 64"><defs><style>.cls-1{fill:url(#linear-gradient);}.cls-2{fill:url(#linear-gradient-2);}</style><linearGradient id="linear-gradient" x1="2" y1="32" x2="62" y2="32" gradientUnits="userSpaceOnUse"><stop offset="0" stop-color="#17a6d7"/><stop offset="1" stop-color="#9d31fe"/></linearGradient><linearGradient id="linear-gradient-2" x1="20.82" y1="28.02" x2="43.91" y2="28.02" xlink:href="#linear-gradient"/></defs><g id="Layer_7" data-name="Layer 7"><path class="cls-1" d="M57,7.47H7a5,5,0,0,0-5,5V51.52a5,5,0,0,0,5,5,5,5,0,0,0,3.41-1.37l6.81-6.42a1,1,0,0,1,.68-.27H57a5,5,0,0,0,5-5v-31A5,5,0,0,0,57,7.47Zm1,36a1,1,0,0,1-1,1H17.92a5,5,0,0,0-3.43,1.36l-6.8,6.42A1,1,0,0,1,6,51.52V12.47a1,1,0,0,1,1-1H57a1,1,0,0,1,1,1Z"/><path class="cls-2" d="M38.36,17.06a2,2,0,0,0-2.83,0L31,21.63l-6.49,6.49c-.39,0-3.28,8.33-3.5,8.72a2,2,0,0,0,1.87,2.71c-.23.32,8.62-3.14,8.72-3.18.24.26,6.91-6.74,7.2-6.94l4.57-4.58a2,2,0,0,0,0-2.83ZM36.94,21.3l2.14,2.14-1.75,1.74L35.2,23.05ZM29.73,32.79,26.28,34.1l1.31-3.45,4.78-4.77L34.5,28Z"/></g></svg>