<?xml version="1.0" encoding="UTF-8" standalone="no"?> <svg xmlns="http://www.w3.org/2000/svg" xmlns:xlink="http://www.w3.org/1999/xlink" viewBox="0 0 64 64"><defs><style>.cls-1{fill:url(#linear-gradient);}.cls-2{fill:url(#linear-gradient-2);}</style><linearGradient id="linear-gradient" x1="22.75" y1="22.12" x2="61.01" y2="22.12" gradientUnits="userSpaceOnUse"><stop offset="0" stop-color="#17a6d7"/><stop offset="1" stop-color="#9d31fe"/></linearGradient><linearGradient id="linear-gradient-2" x1="2.75" y1="40" x2="56.16" y2="40" xlink:href="#linear-gradient"/></defs><g id="Layer_14" data-name="Layer 14"><path class="cls-1" d="M58.88,5.12a7.26,7.26,0,0,0-10.26,0L25.54,28.19a1.3,1.3,0,0,0-.33.61L22.78,39.73A1.26,1.26,0,0,0,24,41.25a1.24,1.24,0,0,0,.27,0L35.2,38.79a1.3,1.3,0,0,0,.61-.33L58.88,15.38a7.24,7.24,0,0,0,0-10.26ZM34.3,36.43l-8.65,1.92,1.92-8.65L44.31,13a4.76,4.76,0,0,1,6.74,6.73ZM57.12,13.62l-2.21,2.2a7.22,7.22,0,0,0-6.73-6.73l2.2-2.21a4.79,4.79,0,0,1,6.74,0,4.78,4.78,0,0,1,0,6.74Z"/><path class="cls-2" d="M54.91,28.75A1.25,1.25,0,0,0,53.66,30V57.27a1.48,1.48,0,0,1-1.48,1.48H6.73a1.48,1.48,0,0,1-1.48-1.48V22.73a1.48,1.48,0,0,1,1.48-1.48H24a1.25,1.25,0,0,0,0-2.5H6.73a4,4,0,0,0-4,4V57.27a4,4,0,0,0,4,4H52.18a4,4,0,0,0,4-4V30A1.25,1.25,0,0,0,54.91,28.75Z"/></g></svg>