<?xml version="1.0" encoding="UTF-8" standalone="no"?> <svg xmlns="http://www.w3.org/2000/svg" xmlns:xlink="http://www.w3.org/1999/xlink" viewBox="0 0 64 64"><defs><style>.cls-1{fill:url(#linear-gradient);}.cls-2{fill:url(#linear-gradient-2);}</style><linearGradient id="linear-gradient" x1="18.91" y1="24.28" x2="60.54" y2="24.28" gradientUnits="userSpaceOnUse"><stop offset="0" stop-color="#17a6d7"/><stop offset="1" stop-color="#9d31fe"/></linearGradient><linearGradient id="linear-gradient-2" x1="2.5" y1="36" x2="53.5" y2="36" xlink:href="#linear-gradient"/></defs><g id="Layer_33" data-name="Layer 33"><path class="cls-1" d="M60.54,11.45c.11-7-8.77-10.69-13.64-5.65-2,2.07-5.45,5.43-7.47,7.47L25.26,27.44a1.45,1.45,0,0,0-.33.51L19,43A1.51,1.51,0,0,0,21,45l15.09-5.9a1.56,1.56,0,0,0,.5-.33L50.73,24.57c.72-.71,2.8-2.8,3.54-3.54L58.2,17.1A7.94,7.94,0,0,0,60.54,11.45Zm-25,24.11L28.44,28.5l12.05-12,7.06,7.06ZM49.67,21.39l-7.06-7.06L44,12.91,51.09,20ZM26.88,31.18l5.94,5.94-9.75,3.81ZM56.08,15l-2.87,2.87-7.06-7.06L49,7.92C53.79,3.38,60.62,10.21,56.08,15Z"/><path class="cls-2" d="M52,34.08a1.5,1.5,0,0,0-1.5,1.5V58.5H5.5v-45H28.42a1.5,1.5,0,0,0,0-3H4A1.5,1.5,0,0,0,2.5,12V60A1.5,1.5,0,0,0,4,61.5H52A1.5,1.5,0,0,0,53.5,60V35.58A1.5,1.5,0,0,0,52,34.08Z"/></g></svg>