<?xml version="1.0" ?><svg height="211.13962mm" viewBox="0 0 81.102921 211.13962" width="81.102921mm" xmlns="http://www.w3.org/2000/svg">
    <path color="#000" d="m 1239.5176,1023.9238 -109.541,100.6641 4.2597,133.5254 91.2832,77.9902 c 0,0 -11.6839,344.7104 -10.4668,403.4219 1.2171,58.7115 30.307,63.8604 65.2383,65.832 34.9313,1.9716 52.7014,-9.639 55.7442,-41.1855 3.0428,-31.5464 -7.1993,-413.791 -7.1993,-413.791 l 86.7989,-115.0508 -33.7149,-15.2266 c -13.0813,-56.8893 9.0586,-120.0819 -77.5312,-165.289 l -6.9375,151.4882 -54.0078,-3.707 z m 39.207,706.295 a 17.039682,19.935633 0 0 1 0.1465,0 17.039682,19.935633 0 0 1 17.0391,19.9355 17.039682,19.935633 0 0 1 -17.0391,19.9355 17.039682,19.935633 0 0 1 -17.0391,-19.9355 17.039682,19.935633 0 0 1 16.8926,-19.9355 z" fill="#FFFFFF" overflow="visible" paint-order="fill markers stroke" transform="translate(-31.331787,-118.73255) matrix(0.26458333,0,0,0.26458333,-264.95127,-150.71555)"/>
    <path d="m 1207.3791,1759.2747 c 2.3326,-145.8342 7.2533,-289.4492 9.0994,-419.4594 -24.8525,-36.3197 -91.1086,-58.8249 -92.4079,-90.4902 -1.4759,-21.0181 -2.8919,-43.3183 -3.5626,-60.8375 -1.3065,-34.6742 -0.8011,-51.7006 1.7037,-57.3976 0.6527,-1.4844 2.1317,-5.5519 3.2867,-9.0392 1.5511,-4.6828 4.3559,-8.4542 10.7292,-14.4268 25.9425,-25.7196 63.819,-57.8868 86.1762,-82.3099 17.3806,-17.2474 26.9657,0.831 28.537,20.1684 -1.3136,82.6047 -1.502,77.1308 0.658,139.4 14.8971,1.4293 26.1345,7.6588 39.8354,8.7804 0.071,-45.3018 -0.2117,-91.6765 3.0431,-138.4465 0.161,-1.8382 0.323,-4.102 0.3598,-5.0308 0.087,-2.2005 7.819,-7.1764 11.303,-7.2741 53.9059,26.6697 76.8169,89.1411 81.8856,125.2256 0.5938,4.386 2.0706,12.7501 3.2816,18.587 1.2392,5.9717 2.0746,15.1005 1.9103,20.875 l -0.292,10.2623 4.2496,0.8827 c 2.3373,0.4856 4.8521,0.9654 5.5883,1.0664 0.7363,0.101 1.6429,0.3436 2.0148,0.5393 0.3719,0.1956 2.0795,0.4628 3.7948,0.5938 13.0145,0.9938 18.5695,7.0858 17.6749,19.3831 -0.274,3.767 -1.269,8.3697 -2.2108,10.2284 -27.5217,34.9287 -44.7959,53.6569 -77.2957,96.3545 -0.8668,2.341 -8.173,5.2853 -6.9519,7.5243 0.516,0.788 1.743,29.6755 2.7266,64.1946 2.4749,120.4131 10.3526,327.5756 3.7137,347.5285 -12.2297,72.5419 -138.7338,63.2627 -138.8508,-6.8823 z m 122.6855,-10.3616 c 1.6462,-17.2136 2.2267,-112.6925 -2.1452,-197.0691 -1.4994,-28.9374 -3.6571,-84.1134 -4.795,-122.6135 1.5058,-27.6825 -6.7219,-79.6333 5.7137,-89.5124 3.7365,-4.2835 14.1535,-19.348 19.5694,-25.6024 9.4976,-15.6767 65.3246,-69.3777 56.0433,-72.4596 -0.6285,-0.5913 0,0 -11.196,-6.4167 -50.0954,-11.0686 -100.6619,-21.369 -149.8119,-32.6446 -14.673,-1.9755 -4.1148,-15.2691 -8.2665,-155.4726 3.2522,-28.867 -61.5306,45.3558 -73.1493,57.6861 -24.4298,25.8794 -24.0216,24.5627 -23.1759,74.7512 -0.6348,14.2123 0.2552,66.0031 6.3008,76.9637 3.0324,-0.062 61.8098,51.1455 74.1018,61.9247 12.0262,9.8921 17.8326,12.1921 16.3774,25.7658 -5.6565,146.142 -10.4804,256.9845 -9.7616,405.0388 -3.0644,68.3157 102.6306,57.7356 104.195,-0.3394 z m -79.5126,5.3759 c 0.3409,-14.7834 10.975,-28.2342 24.0107,-32.2811 17.9202,-3.9253 30.3359,4.9583 32.2186,19.6914 2.8935,20.4502 -5.2658,39.7056 -31.5737,40.0879 -16.7207,-1.5367 -25.0879,-14.5073 -24.6556,-27.4982 z m 33.3166,10.1331 c 8.8765,-8.1633 4.0471,-31.945 -9.507,-25.9782 -7.1488,3.6643 -8.8138,5.8148 -8.6982,11.2343 1.4376,10.6652 7.5205,21.0653 18.2052,14.7439 z m 29.5665,-66.5976 c -8.3556,-88.6714 -5.867,-201.0891 -8.2024,-298.9996 0.9704,-2.7237 1.9501,-3.4395 4.0389,-2.9513 3.3371,0.7799 3.112,-1.1819 4.3951,38.3034 2.8846,69.2841 7.1704,144.4357 7.2686,206.5471 0.01,16.1387 0.5143,32.9312 1.1235,37.3168 1.0722,7.7179 -0.035,17.356 -2.2966,19.9868 -1.8819,2.1895 -5.087,2.0864 -6.3274,-0.2032 z m -74.5812,-63.9519 c 2.8668,-79.9354 2.2995,-282.9494 12.0981,-276.0558 4.6428,-2.6434 5.2294,-1.793 4.7291,6.8559 -1.3803,89.5204 -8.6069,182.2067 -7.7291,258.9672 0.5229,32.8194 0.637,61.3262 0.2533,63.3485 -1.0219,5.3885 -3.2345,9.7567 -4.5529,8.989 -0.6328,-0.3684 -1.1337,-0.034 -1.1133,0.7417 0.02,0.7762 -0.5667,1.4273 -1.3046,1.4466 -0.8905,0.023 -1.6908,-21.5921 -2.3806,-64.2931 z m 19.5889,-327.8167 c -13.686,-1.608 -42.7965,-2.2738 -36.4381,-16.3376 1.8183,-3.754 2.6187,-4.2059 6.98,-3.9411 l 4.9263,0.2991 -0.4285,-7.3246 c -0.2357,-4.0286 -0.587,-11.7074 -0.7807,-17.0641 -0.2289,-6.3253 -0.8261,-9.4292 -1.7039,-8.8544 -0.7852,0.5142 -0.9414,2.7936 -0.3726,5.4404 1.5788,7.3479 -0.1046,18.1071 -3.5332,22.5819 l -3.0785,4.0176 -3.4971,-3.5806 c -1.9235,-1.9692 -3.5787,-4.8979 -3.6783,-6.508 -0.2395,-3.8714 -0.7302,-22.4895 -0.642,-24.492 1.8871,-10.7942 2.7231,-12.9698 12.4712,-13.2598 35.7621,-0.5592 72.0654,-0.934 102.5758,2.5879 16.2226,0.1628 8.9309,47.9459 0.8618,59.7295 -13.039,8.3435 -57.9483,8.9845 -73.6622,6.7058 z m 48.6532,-19.9097 c 0.2925,-3.302 0.7807,-12.7625 1.0848,-21.0233 l 0.5529,-15.0197 -3.5772,0.094 c -4.2229,0.1107 -4.4298,0.6395 -5.0101,12.8024 -0.2453,5.1415 -0.7154,11.606 -1.0447,14.3656 -1.7703,14.8345 -1.8913,14.1941 2.7482,14.5338 2.3356,0.1709 4.3518,0.2973 4.4804,0.281 0.1287,-0.016 0.4732,-2.7316 0.7657,-6.0336 z m -23.9605,2.1355 c -1.1488,-2.3135 -1.5591,-27.8239 -0.544,-33.8252 0.4602,-2.7208 0.093,-3.6704 -1.4034,-3.6312 -3.1981,0.084 -3.4957,1.6021 -3.715,18.9532 -0.1136,8.9956 -0.792,16.9727 -1.5073,17.7266 -2.0394,2.1492 -1.5027,3.284 1.7619,3.7248 4.573,0.6175 6.6232,-0.5002 5.4078,-2.9482 z m -23.4534,-3.6593 c 4.1268,0 0.1417,-17.0476 -0.7058,-26.5459 -0.6149,-6.9083 -0.8508,-7.3169 -4.2063,-7.2859 -2.8817,0.027 -3.6831,0.7737 -4.2315,3.9455 -0.8961,5.1835 -0.2297,29.4452 0.8823,32.1311 1.4213,3.4322 7.7919,1.7005 8.2589,-2.2448 z m 113.3129,-90.0823 c -4.869,-25.6059 -19.8662,-105.1079 -60.6095,-127.7891 -2.4406,40.5684 -2.7759,81.7706 -3.8926,121.5716 l -0.3135,11.44 10.4233,2.7948 c 15.3177,5.3222 30.4766,7.3766 45.2898,9.9628 7.588,1.3292 8.0986,1.2563 9.0893,-1.2972 0.5775,-1.4879 0.5835,-8.9952 0.013,-16.6829 z" fill="#000000" transform="translate(-31.331787,-118.73255) matrix(0.26458333,0,0,0.26458333,-264.95127,-150.71555)"/>
</svg>